<?xml version="1.0" encoding="UTF-8"?>
<svg id="Layer_1" data-name="Layer 1" xmlns="http://www.w3.org/2000/svg" viewBox="0 0 499.16 56.63">
  <defs>
    <style>
      .cls-1 {
        fill: #8bc43f;
      }

      .cls-2 {
        fill: #231f20;
      }
    </style>
  </defs>
  <g>
    <path class="cls-2" d="M96.61,21.85c3.14,0,5.69,1.68,6.64,4.58h-3.26c-.67-1.36-1.88-2.03-3.4-2.03-2.47,0-4.23,1.8-4.23,4.68s1.76,4.68,4.23,4.68c1.52,0,2.73-.67,3.4-2.05h3.26c-.95,2.92-3.5,4.58-6.64,4.58-4.07,0-7.17-2.98-7.17-7.21s3.1-7.23,7.17-7.23Z"/>
    <path class="cls-2" d="M112.25,36.3c-3.99,0-7.25-3-7.25-7.25s3.26-7.23,7.25-7.23,7.23,3,7.23,7.23-3.22,7.25-7.23,7.25Zm0-2.53c2.55,0,4.31-1.84,4.31-4.72s-1.76-4.68-4.31-4.68-4.33,1.8-4.33,4.68,1.76,4.72,4.33,4.72Z"/>
    <path class="cls-2" d="M121.59,22.03h3.22l4.5,10.51,4.5-10.51h3.2v14.13h-2.83v-9.19l-3.79,9.19h-2.15l-3.81-9.19v9.19h-2.83v-14.13Z"/>
    <path class="cls-2" d="M145,30.73h-2.37v5.43h-2.83v-14.13h5.2c3.4,0,5.1,1.92,5.1,4.37,0,2.15-1.46,4.33-5.1,4.33Zm-.12-2.29c1.6,0,2.31-.79,2.31-2.04s-.71-2.07-2.31-2.07h-2.25v4.11h2.25Z"/>
    <path class="cls-2" d="M157.42,22.03c3.4,0,5.1,1.96,5.1,4.33,0,1.72-.95,3.46-3.22,4.07l3.38,5.73h-3.28l-3.12-5.51h-1.34v5.51h-2.83v-14.13h5.31Zm-.1,2.35h-2.37v4.15h2.37c1.58,0,2.29-.83,2.29-2.11s-.71-2.04-2.29-2.04Z"/>
    <path class="cls-2" d="M171.66,36.3c-3.99,0-7.25-3-7.25-7.25s3.26-7.23,7.25-7.23,7.23,3,7.23,7.23-3.22,7.25-7.23,7.25Zm0-2.53c2.55,0,4.31-1.84,4.31-4.72s-1.76-4.68-4.31-4.68-4.33,1.8-4.33,4.68,1.76,4.72,4.33,4.72Z"/>
    <path class="cls-2" d="M187.09,36.16h-6.09v-14.13h5.83c2.96,0,4.6,1.54,4.6,3.65,0,1.72-1.03,2.79-2.41,3.24,1.6,.28,2.73,1.76,2.73,3.42,0,2.25-1.72,3.83-4.66,3.83Zm-.67-11.85h-2.59v3.54h2.59c1.34,0,2.11-.61,2.11-1.76s-.77-1.78-2.11-1.78Zm.2,5.73h-2.79v3.81h2.85c1.38,0,2.19-.67,2.19-1.86s-.87-1.94-2.25-1.94Z"/>
    <path class="cls-2" d="M202.69,33.47h-5.63l-.93,2.69h-2.98l5.08-14.15h3.3l5.08,14.15h-3l-.93-2.69Zm-2.81-8.18l-2.05,5.91h4.09l-2.04-5.91Z"/>
    <path class="cls-2" d="M220.61,22.01v14.15h-2.83l-6.42-9.7v9.7h-2.83v-14.15h2.83l6.42,9.72v-9.72h2.83Z"/>
    <path class="cls-2" d="M222.66,22.03h10.37v2.29h-3.77v11.85h-2.83v-11.85h-3.77v-2.29Z"/>
    <path class="cls-2" d="M243.3,24.31h-5.37v3.54h4.76v2.25h-4.76v3.75h5.37v2.31h-8.2v-14.15h8.2v2.31Z"/>
    <path class="cls-2" d="M249.52,22.03h3.2l3.04,6.46,3.02-6.46h3.16l-4.78,9.21v4.92h-2.83v-4.92l-4.8-9.21Z"/>
    <path class="cls-2" d="M280.79,29.11c0,4.27-2.94,7.05-7.45,7.05h-4.94v-14.13h4.94c4.52,0,7.45,2.79,7.45,7.09Zm-7.55,4.64c2.98,0,4.66-1.7,4.66-4.64s-1.68-4.7-4.66-4.7h-2v9.33h2Z"/>
    <path class="cls-2" d="M289.48,36.3c-3.99,0-7.25-3-7.25-7.25s3.26-7.23,7.25-7.23,7.23,3,7.23,7.23-3.22,7.25-7.23,7.25Zm0-2.53c2.55,0,4.31-1.84,4.31-4.72s-1.76-4.68-4.31-4.68-4.33,1.8-4.33,4.68,1.76,4.72,4.33,4.72Z"/>
    <path class="cls-2" d="M305.3,21.85c3.14,0,5.69,1.68,6.64,4.58h-3.26c-.67-1.36-1.88-2.03-3.4-2.03-2.47,0-4.23,1.8-4.23,4.68s1.76,4.68,4.23,4.68c1.52,0,2.73-.67,3.4-2.05h3.26c-.95,2.92-3.5,4.58-6.64,4.58-4.07,0-7.17-2.98-7.17-7.21s3.1-7.23,7.17-7.23Z"/>
    <path class="cls-2" d="M314.34,22.03h2.83v8.75c0,1.94,1.05,2.96,2.86,2.96s2.88-1.01,2.88-2.96v-8.75h2.85v8.73c0,3.73-2.67,5.55-5.77,5.55s-5.65-1.82-5.65-5.55v-8.73Z"/>
    <path class="cls-2" d="M328.5,22.03h3.22l4.5,10.51,4.5-10.51h3.2v14.13h-2.83v-9.19l-3.79,9.19h-2.15l-3.81-9.19v9.19h-2.83v-14.13Z"/>
    <path class="cls-2" d="M354.91,24.31h-5.37v3.54h4.76v2.25h-4.76v3.75h5.37v2.31h-8.2v-14.15h8.2v2.31Z"/>
    <path class="cls-2" d="M369.57,22.01v14.15h-2.83l-6.42-9.7v9.7h-2.83v-14.15h2.83l6.42,9.72v-9.72h2.83Z"/>
    <path class="cls-2" d="M371.62,22.03h10.37v2.29h-3.77v11.85h-2.83v-11.85h-3.77v-2.29Z"/>
    <path class="cls-2" d="M390.62,36.3c-3.99,0-7.25-3-7.25-7.25s3.26-7.23,7.25-7.23,7.23,3,7.23,7.23-3.22,7.25-7.23,7.25Zm0-2.53c2.55,0,4.31-1.84,4.31-4.72s-1.76-4.68-4.31-4.68-4.33,1.8-4.33,4.68,1.76,4.72,4.33,4.72Z"/>
    <path class="cls-2" d="M404.84,36.3c-2.94,0-5.2-1.54-5.25-4.21h3.04c.08,1.13,.83,1.88,2.15,1.88s2.13-.71,2.13-1.72c0-3.06-7.29-1.21-7.27-6.34,0-2.55,2.07-4.09,4.98-4.09s4.88,1.48,5.06,4.03h-3.12c-.06-.93-.81-1.66-2.02-1.68-1.11-.04-1.94,.51-1.94,1.66,0,2.83,7.25,1.26,7.25,6.24,0,2.23-1.78,4.23-5,4.23Z"/>
    <path class="cls-2" d="M154.05,48.42h-1.78c-.62-1.32-1.86-2.09-3.46-2.09-2.4,0-4.2,1.73-4.2,4.48s1.8,4.46,4.2,4.46c2.24,0,3.77-1.44,4-3.69h-4.54v-1.21h6.13v1.14c-.26,2.83-2.5,5.1-5.59,5.1s-5.72-2.39-5.72-5.8,2.52-5.82,5.72-5.82c2.4,0,4.4,1.24,5.25,3.43Z"/>
    <path class="cls-2" d="M162.49,46.33h-4.64v3.81h4.15v1.23h-4.15v3.92h4.64v1.23h-6.13v-11.41h6.13v1.23Z"/>
    <path class="cls-2" d="M173.71,45.1v11.41h-1.49l-5.98-9.07v9.07h-1.49v-11.41h1.49l5.98,9.05v-9.05h1.49Z"/>
    <path class="cls-2" d="M182.37,46.33h-4.64v3.81h4.15v1.23h-4.15v3.92h4.64v1.23h-6.13v-11.41h6.13v1.23Z"/>
    <path class="cls-2" d="M188.31,45.12c2.68,0,3.95,1.49,3.95,3.35,0,1.45-.8,2.84-2.71,3.27l2.86,4.77h-1.78l-2.71-4.66h-1.8v4.66h-1.49v-11.39h3.68Zm0,1.23h-2.19v4.31h2.19c1.68,0,2.42-.92,2.42-2.19s-.72-2.12-2.42-2.12Z"/>
    <path class="cls-2" d="M201.3,53.98h-4.97l-.92,2.53h-1.57l4.12-11.33h1.72l4.1,11.33h-1.57l-.92-2.53Zm-2.48-6.96l-2.06,5.75h4.12l-2.06-5.75Z"/>
    <path class="cls-2" d="M215.18,50.84c0,3.53-2.3,5.67-6.05,5.67h-3.55v-11.39h3.55c3.74,0,6.05,2.19,6.05,5.72Zm-6.05,4.45c2.97,0,4.53-1.67,4.53-4.45s-1.55-4.51-4.53-4.51h-2.06v8.96h2.06Z"/>
    <path class="cls-2" d="M222.31,56.63c-3.2,0-5.72-2.4-5.72-5.82s2.52-5.82,5.72-5.82,5.72,2.4,5.72,5.82-2.5,5.82-5.72,5.82Zm0-1.29c2.4,0,4.2-1.75,4.2-4.53s-1.8-4.53-4.2-4.53-4.2,1.73-4.2,4.53,1.8,4.53,4.2,4.53Z"/>
    <path class="cls-2" d="M233.61,56.63c-2.29,0-3.91-1.27-3.94-3.15h1.58c.1,.95,.77,1.9,2.35,1.9,1.44,0,2.29-.82,2.29-1.9,0-3.07-6.16-1.11-6.16-5.34,0-1.88,1.52-3.15,3.77-3.15s3.6,1.19,3.77,2.92h-1.63c-.1-.77-.82-1.63-2.21-1.65-1.23-.03-2.19,.6-2.19,1.83,0,2.94,6.14,1.11,6.14,5.33,0,1.62-1.32,3.22-3.79,3.22Z"/>
    <path class="cls-2" d="M247.64,51.76h-2.19v4.76h-1.49v-11.39h3.68c2.68,0,3.94,1.47,3.94,3.33,0,1.73-1.11,3.3-3.94,3.3Zm0-1.23c1.7,0,2.42-.8,2.42-2.08s-.72-2.11-2.42-2.11h-2.19v4.18h2.19Z"/>
    <path class="cls-2" d="M258.59,56.63c-3.2,0-5.72-2.4-5.72-5.82s2.52-5.82,5.72-5.82,5.72,2.4,5.72,5.82-2.5,5.82-5.72,5.82Zm0-1.29c2.4,0,4.2-1.75,4.2-4.53s-1.8-4.53-4.2-4.53-4.2,1.73-4.2,4.53,1.8,4.53,4.2,4.53Z"/>
    <path class="cls-2" d="M269.95,45.12c2.68,0,3.95,1.49,3.95,3.35,0,1.45-.8,2.84-2.71,3.27l2.86,4.77h-1.78l-2.71-4.66h-1.8v4.66h-1.49v-11.39h3.68Zm0,1.23h-2.19v4.31h2.19c1.68,0,2.42-.92,2.42-2.19s-.72-2.12-2.42-2.12Z"/>
    <path class="cls-2" d="M284.19,56.63c-2.29,0-3.91-1.27-3.94-3.15h1.58c.1,.95,.77,1.9,2.35,1.9,1.44,0,2.29-.82,2.29-1.9,0-3.07-6.16-1.11-6.16-5.34,0-1.88,1.52-3.15,3.77-3.15s3.6,1.19,3.78,2.92h-1.63c-.1-.77-.82-1.63-2.21-1.65-1.23-.03-2.19,.6-2.19,1.83,0,2.94,6.14,1.11,6.14,5.33,0,1.62-1.32,3.22-3.79,3.22Z"/>
    <path class="cls-2" d="M290.18,45.12h1.49v11.39h-1.49v-11.39Z"/>
    <path class="cls-2" d="M299.33,44.97c2.47,0,4.43,1.24,5.28,3.45h-1.78c-.62-1.37-1.83-2.14-3.5-2.14-2.39,0-4.17,1.73-4.17,4.53s1.78,4.51,4.17,4.51c1.67,0,2.88-.77,3.5-2.12h1.78c-.85,2.19-2.81,3.42-5.28,3.42-3.19,0-5.69-2.39-5.69-5.8s2.5-5.83,5.69-5.83Z"/>
    <path class="cls-2" d="M311.99,56.63c-3.2,0-5.72-2.4-5.72-5.82s2.52-5.82,5.72-5.82,5.72,2.4,5.72,5.82-2.5,5.82-5.72,5.82Zm0-1.29c2.4,0,4.2-1.75,4.2-4.53s-1.8-4.53-4.2-4.53-4.2,1.73-4.2,4.53,1.8,4.53,4.2,4.53Z"/>
    <path class="cls-2" d="M328.63,45.1v11.41h-1.49l-5.98-9.07v9.07h-1.49v-11.41h1.49l5.98,9.05v-9.05h1.49Z"/>
    <path class="cls-2" d="M341.66,46.33h-4.64v3.81h4.15v1.23h-4.15v3.92h4.64v1.23h-6.13v-11.41h6.13v1.23Z"/>
    <path class="cls-2" d="M347.6,45.12c2.68,0,3.96,1.49,3.96,3.35,0,1.45-.8,2.84-2.71,3.27l2.86,4.77h-1.78l-2.71-4.66h-1.8v4.66h-1.49v-11.39h3.68Zm0,1.23h-2.19v4.31h2.19c1.68,0,2.42-.92,2.42-2.19s-.72-2.12-2.42-2.12Z"/>
    <path class="cls-2" d="M357.54,51.76h-2.19v4.76h-1.49v-11.39h3.68c2.68,0,3.94,1.47,3.94,3.33,0,1.73-1.11,3.3-3.94,3.3Zm0-1.23c1.7,0,2.42-.8,2.42-2.08s-.72-2.11-2.42-2.11h-2.19v4.18h2.19Z"/>
  </g>
  <rect class="cls-1" width="499.16" height="5.75"/>
</svg>