<?xml version="1.0" encoding="UTF-8"?>
<svg id="Layer_1" data-name="Layer 1" xmlns="http://www.w3.org/2000/svg" viewBox="0 0 271.99 74.35">
  <defs>
    <style>
      .cls-1 {
        fill: #939598;
      }

      .cls-2 {
        fill: #8bc43f;
      }

      .cls-3 {
        fill: #58595b;
      }
    </style>
  </defs>
  <g>
    <path class="cls-1" d="M25.84,10.46v25.69h-7.14l-9.51-14.36v14.36H2.04V10.46h7.14l9.51,14.54V10.46h7.14Z"/>
    <path class="cls-1" d="M42.24,36.4c-7.29,0-13.19-5.47-13.19-13.19s5.9-13.15,13.19-13.15,13.15,5.43,13.15,13.15-5.87,13.19-13.15,13.19Zm0-6.63c3.68,0,5.9-2.59,5.9-6.56s-2.22-6.6-5.9-6.6-5.9,2.55-5.9,6.6,2.19,6.56,5.9,6.56Z"/>
    <path class="cls-1" d="M57.18,10.46h20.77v5.68h-6.85v20h-7.14V16.14h-6.78v-5.68Z"/>
    <path class="cls-1" d="M80.61,10.46h7.14v25.69h-7.14V10.46Z"/>
    <path class="cls-1" d="M91.83,10.46h17.42v5.68h-10.28v4.52h7.58v5.43h-7.58v10.06h-7.14V10.46Z"/>
    <path class="cls-1" d="M112.27,10.46h7.14v25.69h-7.14V10.46Z"/>
    <path class="cls-1" d="M135.41,10.2c6.45,0,11.04,3.72,12.32,9.55h-7.69c-.91-1.93-2.62-2.99-4.74-2.99-3.28,0-5.43,2.55-5.43,6.49s2.15,6.52,5.43,6.52c2.11,0,3.83-1.06,4.74-2.99h7.69c-1.28,5.83-5.87,9.55-12.32,9.55-7.72,0-12.79-5.39-12.79-13.08s5.06-13.04,12.79-13.04Z"/>
    <path class="cls-1" d="M167.37,31.96h-9.11l-1.38,4.19h-7.51l9.36-25.69h8.23l9.33,25.69h-7.54l-1.38-4.19Zm-4.55-13.77l-2.73,8.31h5.5l-2.77-8.31Z"/>
    <path class="cls-1" d="M190.55,10.2c6.45,0,11.04,3.72,12.32,9.55h-7.69c-.91-1.93-2.62-2.99-4.74-2.99-3.28,0-5.43,2.55-5.43,6.49s2.15,6.52,5.43,6.52c2.11,0,3.83-1.06,4.74-2.99h7.69c-1.28,5.83-5.87,9.55-12.32,9.55-7.72,0-12.79-5.39-12.79-13.08s5.06-13.04,12.79-13.04Z"/>
    <path class="cls-1" d="M206.26,10.46h7.14v25.69h-7.14V10.46Z"/>
    <path class="cls-1" d="M229.79,36.4c-7.29,0-13.19-5.47-13.19-13.19s5.9-13.15,13.19-13.15,13.15,5.43,13.15,13.15-5.87,13.19-13.15,13.19Zm0-6.63c3.68,0,5.9-2.59,5.9-6.56s-2.22-6.6-5.9-6.6-5.9,2.55-5.9,6.6,2.19,6.56,5.9,6.56ZM234.24,0V5.39l-9.11,3.57V4.12l9.11-4.12Z"/>
    <path class="cls-1" d="M269.95,10.46v25.69h-7.14l-9.51-14.36v14.36h-7.14V10.46h7.14l9.51,14.54V10.46h7.14Z"/>
  </g>
  <g>
    <path class="cls-3" d="M4.12,58.84H12.77v1.63H6.12v5.16h5.41v1.63H6.12v6.9h-2v-15.31Z"/>
    <path class="cls-3" d="M20.16,61.91c2.24,0,3.78,1.14,4.48,2.4v-2.2h2.02v12.04h-2.02v-2.24c-.73,1.3-2.29,2.44-4.5,2.44-3.21,0-5.69-2.53-5.69-6.26s2.48-6.17,5.71-6.17Zm.4,1.74c-2.2,0-4.06,1.6-4.06,4.44s1.87,4.5,4.06,4.5,4.09-1.65,4.09-4.48-1.89-4.46-4.09-4.46Z"/>
    <path class="cls-3" d="M35.16,61.91c2.99,0,4.94,1.54,5.56,4.06h-2.15c-.42-1.45-1.63-2.37-3.41-2.37-2.2,0-3.82,1.56-3.82,4.5s1.63,4.55,3.82,4.55c1.78,0,2.97-.86,3.41-2.37h2.15c-.62,2.4-2.57,4.06-5.56,4.06-3.43,0-5.87-2.42-5.87-6.24s2.44-6.2,5.87-6.2Z"/>
    <path class="cls-3" d="M43.82,63.76h-1.56v-1.65h1.56v-3.03h2v3.03h3.14v1.65h-3.14v7.1c0,1.19,.44,1.6,1.67,1.6h1.47v1.69h-1.8c-2.13,0-3.34-.88-3.34-3.3v-7.1Z"/>
    <path class="cls-3" d="M62.05,74.15h-2v-1.78c-.77,1.25-2.24,1.96-3.85,1.96-2.77,0-4.94-1.71-4.94-5.16v-7.05h1.98v6.79c0,2.44,1.34,3.69,3.36,3.69s3.45-1.27,3.45-3.87v-6.61h2v12.04Z"/>
    <path class="cls-3" d="M67.43,74.15h-2v-12.04h2v1.96c.68-1.34,1.98-2.18,3.89-2.18v2.07h-.53c-1.91,0-3.36,.86-3.36,3.65v6.55Z"/>
    <path class="cls-3" d="M78.59,61.91c2.24,0,3.78,1.14,4.48,2.4v-2.2h2.02v12.04h-2.02v-2.24c-.73,1.3-2.29,2.44-4.5,2.44-3.21,0-5.69-2.53-5.69-6.26s2.48-6.17,5.71-6.17Zm.4,1.74c-2.2,0-4.06,1.6-4.06,4.44s1.87,4.5,4.06,4.5,4.09-1.65,4.09-4.48-1.89-4.46-4.09-4.46Z"/>
    <path class="cls-3" d="M99.55,74.35c-3.43,0-5.95-2.42-5.95-6.24s2.44-6.2,5.95-6.2,5.78,2.46,5.78,5.76c0,.44-.02,.79-.07,1.21h-9.62c.15,2.44,1.87,3.78,3.91,3.78,1.8,0,2.94-.92,3.38-2.22h2.15c-.62,2.2-2.55,3.91-5.54,3.91Zm-3.89-7.1h7.6c.02-2.35-1.74-3.65-3.8-3.65-1.96,0-3.58,1.3-3.8,3.65Z"/>
    <path class="cls-3" d="M107.97,57.89h2v16.26h-2v-16.26Z"/>
    <path class="cls-3" d="M118.58,74.35c-3.43,0-5.95-2.42-5.95-6.24s2.44-6.2,5.95-6.2,5.78,2.46,5.78,5.76c0,.44-.02,.79-.07,1.21h-9.62c.15,2.44,1.87,3.78,3.91,3.78,1.8,0,2.94-.92,3.38-2.22h2.15c-.62,2.2-2.55,3.91-5.54,3.91Zm-3.89-7.1h7.6c.02-2.35-1.74-3.65-3.8-3.65-1.96,0-3.58,1.3-3.8,3.65Z"/>
    <path class="cls-3" d="M132.11,61.91c2.99,0,4.94,1.54,5.56,4.06h-2.15c-.42-1.45-1.63-2.37-3.41-2.37-2.2,0-3.82,1.56-3.82,4.5s1.63,4.55,3.82,4.55c1.78,0,2.97-.86,3.41-2.37h2.15c-.62,2.4-2.57,4.06-5.56,4.06-3.43,0-5.87-2.42-5.87-6.24s2.44-6.2,5.87-6.2Z"/>
    <path class="cls-3" d="M140.77,63.76h-1.56v-1.65h1.56v-3.03h2v3.03h3.14v1.65h-3.14v7.1c0,1.19,.44,1.6,1.67,1.6h1.47v1.69h-1.8c-2.13,0-3.34-.88-3.34-3.3v-7.1Z"/>
    <path class="cls-3" d="M150.32,74.15h-2v-12.04h2v1.96c.68-1.34,1.98-2.18,3.89-2.18v2.07h-.53c-1.91,0-3.36,.86-3.36,3.65v6.55Z"/>
    <path class="cls-3" d="M161.77,74.35c-3.41,0-6-2.42-6-6.24s2.68-6.2,6.09-6.2,6.09,2.4,6.09,6.2-2.75,6.24-6.17,6.24Zm0-1.76c2.09,0,4.13-1.43,4.13-4.48s-2-4.46-4.06-4.46-4.02,1.43-4.02,4.46,1.87,4.48,3.96,4.48Zm2.24-15.78v1.74l-4.68,2.5v-1.49l4.68-2.75Z"/>
    <path class="cls-3" d="M179.39,67.34c0-2.46-1.34-3.71-3.36-3.71s-3.45,1.27-3.45,3.87v6.66h-2v-12.04h2v1.71c.79-1.25,2.24-1.93,3.87-1.93,2.79,0,4.92,1.71,4.92,5.16v7.1h-1.98v-6.81Z"/>
    <path class="cls-3" d="M184.31,58.79c0-.77,.59-1.36,1.36-1.36,.73,0,1.32,.59,1.32,1.36s-.59,1.36-1.32,1.36c-.77,0-1.36-.59-1.36-1.36Zm.33,3.32h2v12.04h-2v-12.04Z"/>
    <path class="cls-3" d="M195.16,61.91c2.99,0,4.94,1.54,5.56,4.06h-2.15c-.42-1.45-1.63-2.37-3.41-2.37-2.2,0-3.82,1.56-3.82,4.5s1.63,4.55,3.82,4.55c1.78,0,2.97-.86,3.41-2.37h2.15c-.62,2.4-2.57,4.06-5.56,4.06-3.43,0-5.87-2.42-5.87-6.24s2.44-6.2,5.87-6.2Z"/>
    <path class="cls-3" d="M208.34,61.91c2.24,0,3.78,1.14,4.48,2.4v-2.2h2.02v12.04h-2.02v-2.24c-.73,1.3-2.29,2.44-4.5,2.44-3.21,0-5.69-2.53-5.69-6.26s2.48-6.17,5.71-6.17Zm.4,1.74c-2.2,0-4.06,1.6-4.06,4.44s1.87,4.5,4.06,4.5,4.09-1.65,4.09-4.48-1.89-4.46-4.09-4.46Z"/>
  </g>
  <rect class="cls-2" y="42.87" width="271.99" height="4.21"/>
</svg>