<?xml version="1.0" encoding="UTF-8"?>
<svg id="Layer_1" data-name="Layer 1" xmlns="http://www.w3.org/2000/svg" viewBox="0 0 55.56 61.13">
  <path d="M55.54,36.82c0,7.7,0,15.4,.01,23.1,0,.63-.11,.83-.8,.83-11.05-.02-22.09-.02-33.14,0-.61,0-.83-.14-.78-.77,.06-.83,.03-1.67,0-2.51-.01-.43,.11-.59,.56-.58,3.18,.03,6.36,.03,9.54,.03,3.31,0,6.62,0,9.94,0,3.38,0,6.76-.02,10.15,0,.5,0,.69-.07,.69-.65-.02-12.47-.02-24.94-.02-37.41q0-.91-.92-.91c-3.98,0-7.95,0-11.93,.01-.52,0-.68-.13-.68-.67,.02-4.25,0-8.49,.02-12.74,0-.56-.14-.71-.71-.71-7.66,.02-15.32,.02-22.97,0-.6,0-.74,.14-.74,.75,.02,13.31,0,26.61,.03,39.92,0,.65-.13,.87-.8,.81-.79-.07-1.58-.06-2.37,0-.57,.04-.65-.18-.65-.68,.02-4.97,.01-9.94,0-14.91,0-9.67,0-19.34-.02-29.01C9.98,.12,10.12,0,10.68,0c10.35,.02,20.69,.02,31.04,0,.44,0,.75,.12,1.06,.43,4.11,4.06,8.23,8.11,12.37,12.15,.31,.3,.4,.59,.4,1,0,7.74,0,15.49,0,23.23ZM42.3,5.01c-.1,.08-.21,.16-.31,.24,0,2.84,0,5.67,0,8.51,0,.46,.31,.35,.56,.35,2.73,0,5.46,0,8.19,0,.12,0,.28,.07,.15,.08-2.86-3.06-5.72-6.12-8.58-9.17Z"/>
  <path d="M9.29,61.13c-.58-.05-1.01-.24-1.38-.61-2.44-2.44-4.89-4.88-7.32-7.33-.79-.8-.77-1.94,.02-2.7,.77-.76,1.89-.75,2.7,.05,1.86,1.84,3.72,3.69,5.55,5.56,.33,.34,.5,.33,.83,0,3.61-3.64,7.24-7.25,10.86-10.89,.59-.59,1.26-.8,2.03-.56,.74,.23,1.2,.78,1.32,1.56,.1,.64-.13,1.2-.58,1.65-4.23,4.24-8.46,8.46-12.69,12.69-.39,.39-.88,.52-1.34,.58Z"/>
  <path d="M27.15,11.27c-2.41,0-4.82-.01-7.23,.01-.42,0-.51-.09-.49-.51,.05-.92,.03-1.85,0-2.78,0-.39,.08-.55,.52-.55,4.83,.02,9.67,.01,14.5,0,.38,0,.51,.11,.5,.49-.03,.93-.03,1.85,0,2.78,.02,.45-.14,.56-.57,.55-2.41-.02-4.82,0-7.23,0,0,0,0,0,0,.01Z"/>
  <path d="M24.63,26.98c-1.58,0-3.16,0-4.74,0-.35,0-.49-.04-.47-.46,.05-.99,.03-1.99,0-2.98,0-.29,.04-.38,.34-.38,3.3,.01,6.59,.02,9.89,0,.36,0,.39,.17,.39,.45-.01,.95-.03,1.9,0,2.84,.02,.44-.15,.52-.54,.51-1.63-.02-3.25,0-4.88,0Z"/>
  <path d="M24.71,34.31c-1.6,0-3.21-.02-4.81,.01-.44,0-.5-.11-.48-.51,.04-.95,.03-1.9,0-2.84,0-.35,.1-.47,.46-.47,3.23,.01,6.46,.01,9.68,0,.42,0,.48,.17,.47,.53-.02,.93-.03,1.85,0,2.78,.02,.43-.13,.52-.53,.52-1.6-.02-3.2,0-4.81,0h0Z"/>
  <path d="M24.77,37.84c1.58,0,3.16,.01,4.74,0,.4,0,.56,.08,.55,.52-.03,.95-.02,1.9,0,2.84,0,.34-.08,.48-.45,.47-3.23-.01-6.46,0-9.69,0-.34,0-.49-.09-.48-.46,.02-.97,.02-1.94,0-2.91-.01-.42,.17-.47,.52-.47,1.6,.02,3.21,0,4.81,0Z"/>
  <path d="M40.81,26.98c-1.56,0-3.12-.01-4.67,0-.42,0-.54-.11-.53-.53,.03-.92,.02-1.85,0-2.78,0-.36,.07-.52,.48-.51,3.16,.02,6.32,.02,9.48,0,.38,0,.51,.11,.5,.49-.02,.95-.03,1.9,0,2.84,.01,.42-.16,.48-.52,.47-1.58-.01-3.16,0-4.74,0Z"/>
  <path d="M40.77,34.31c-1.56,0-3.11-.01-4.67,.01-.39,0-.51-.1-.5-.49,.02-.97,.02-1.94,0-2.91,0-.32,.09-.43,.42-.43,3.2,0,6.4,.01,9.6,0,.39,0,.44,.16,.43,.49-.01,.95-.02,1.89,0,2.84,.01,.39-.12,.5-.5,.49-1.6-.02-3.2,0-4.8,0h0Z"/>
  <path d="M40.87,37.84c1.56,0,3.11,.01,4.67,0,.41,0,.55,.09,.53,.52-.03,.92-.03,1.85,0,2.77,.01,.4-.09,.55-.52,.55-3.13-.02-6.27-.02-9.4,0-.4,0-.55-.1-.54-.53,.03-.9,.03-1.8,0-2.71-.02-.47,.11-.62,.6-.61,1.56,.03,3.11,.01,4.67,.01Z"/>
  <path d="M40.85,51.78c-1.56,0-3.11-.01-4.67,0-.44,0-.59-.11-.58-.57,.03-.92,.02-1.85,0-2.77,0-.37,.08-.52,.48-.51,3.16,.01,6.32,.01,9.48,0,.38,0,.51,.11,.5,.5-.02,.95-.03,1.9,0,2.84,.02,.44-.16,.52-.55,.51-1.56-.02-3.11,0-4.67,0Z"/>
</svg>