<?xml version="1.0" encoding="UTF-8"?>
<svg id="Layer_1" data-name="Layer 1" xmlns="http://www.w3.org/2000/svg" viewBox="0 0 595.18 62.24">
  <defs>
    <style>
      .cls-1 {
        letter-spacing: -.09em;
      }

      .cls-2, .cls-3 {
        fill: #fff;
      }

      .cls-4 {
        fill: #8bc43f;
      }

      .cls-5 {
        fill: #595a5c;
      }

      .cls-6 {
        fill: #757578;
      }

      .cls-7 {
        letter-spacing: -.06em;
      }

      .cls-3 {
        font-family: Avenir-Roman, Avenir;
        font-size: 19.42px;
      }
    </style>
  </defs>
  <rect class="cls-5" y="35.16" width="585.92" height="26.94"/>
  <rect class="cls-6" x="286.29" y="35.16" width="308.88" height="26.94"/>
  <text class="cls-3" transform="translate(35.67 54.51)"><tspan x="0" y="0">ww</tspan><tspan class="cls-7" x="28.78" y="0">w</tspan><tspan x="42.1" y="0">.siconecuado</tspan><tspan class="cls-1" x="156.57" y="0">r</tspan><tspan x="161.61" y="0">.com</tspan></text>
  <polygon class="cls-4" points="566.71 12.37 548.27 0 529.82 12.37 529.82 62.1 566.71 62.1 566.71 12.37"/>
  <g>
    <polyline class="cls-2" points="535.7 25 540.99 25 544.08 28.1 551.28 20.85 555.49 16.62 560.83 16.62 551.28 26.17 544.08 33.37 535.7 25"/>
    <rect class="cls-2" x="552.45" y="27.09" width="1.84" height="1.84"/>
    <rect class="cls-2" x="554.81" y="27.09" width="1.84" height="1.84"/>
    <rect class="cls-2" x="552.45" y="29.44" width="1.84" height="1.84"/>
    <rect class="cls-2" x="554.81" y="29.44" width="1.84" height="1.84"/>
  </g>
</svg>