<?xml version="1.0" encoding="UTF-8"?>
<svg id="Layer_1" data-name="Layer 1" xmlns="http://www.w3.org/2000/svg" xmlns:xlink="http://www.w3.org/1999/xlink" viewBox="0 0 363.57 144.45">
  <defs>
    <style>
      .cls-1 {
        fill: url(#linear-gradient);
      }

      .cls-2 {
        fill: #e6e7e8;
      }

      .cls-3 {
        fill: #fff;
      }
    </style>
    <linearGradient id="linear-gradient" x1="0" y1="72.22" x2="363.57" y2="72.22" gradientUnits="userSpaceOnUse">
      <stop offset="0" stop-color="#8bc23f"/>
      <stop offset=".42" stop-color="#69ba44"/>
      <stop offset=".61" stop-color="#58b647"/>
      <stop offset="1" stop-color="#3a813e"/>
    </linearGradient>
  </defs>
  <path class="cls-1" d="M0,0L226.49,136.73c19.92,12.02,45.32,9.83,62.87-5.43l74.21-64.5V0H0Z"/>
  <g>
    <path class="cls-3" d="M215.84,48.04h-17.01c-1.16,0-2.05,.05-2.67,.16-.62,.11-1.17,.56-1.64,1.35,.15,.99,.54,1.55,1.19,1.68,.64,.12,1.64,.19,2.98,.19h8.32c3.34,.19,5.67,1.16,7,2.9,1.33,1.74,1.84,4.17,1.54,7.29-.5,3.12-1.59,5.42-3.29,6.9-1.7,1.48-4.5,2.26-8.41,2.32h-18.57l.79-7.88h17.65c1.52,0,2.68-.05,3.48-.16s1.34-.7,1.64-1.77c-.1-.85-.51-1.36-1.22-1.53-.71-.17-1.9-.25-3.57-.25h-8.03c-3.54,0-6.05-.86-7.52-2.59-1.47-1.73-2.05-4.12-1.74-7.18,.57-3.2,1.73-5.53,3.47-6.98,1.74-1.45,4.5-2.26,8.27-2.44h18.13l-.79,7.99Z"/>
    <path class="cls-3" d="M218.21,40.05h8.98l-3.05,30.73h-9.17l3.25-30.73Z"/>
    <path class="cls-2" d="M256.35,70.73h-21.66c-6.23-.37-8.87-5.49-7.9-15.38,.97-9.89,4.81-15,11.52-15.34l21.09,.02-.75,7.48h-18.63c-1.39,.02-2.41,.5-3.05,1.47-1.49,3.8-2.08,7.61-1.78,11.41,.16,1.21,.89,1.99,2.19,2.33l19.75,.04-.79,7.97Z"/>
    <path class="cls-2" d="M281.46,71.17h-14.57c-6.48,.03-9.18-5.19-8.1-15.65,1.01-10.58,4.95-15.9,11.83-15.96l11.96,.02c7.18-.13,10.21,4.98,9.06,15.32-.48,10.71-3.88,16.13-10.18,16.26Zm-14.27-10.67c.44,1.4,1.34,2.24,2.7,2.5l8.6-.02c1.46-.16,2.49-.83,3.07-2,.72-.82,1.21-2.82,1.49-6,.28-3.18,.06-5.21-.66-6.09-.69-.92-1.76-1.45-3.2-1.58h-6.63c-1.92,.15-3.28,1.08-4.08,2.79-.53,.79-.94,2.58-1.25,5.37-.31,2.79-.32,4.47-.04,5.04Z"/>
    <path class="cls-2" d="M291.33,70.86l3.09-30.88h20.87c6.03-.13,8.87,3.14,8.54,9.81l-2.11,21.05h-8.19l2.06-19.29c.37-1.99-.37-2.92-2.22-2.79h-11.37l-2.19,22.1h-8.49Z"/>
    <path class="cls-3" d="M228.55,73.42l-1.2,5.69h-.76l1.2-5.69h.76Z"/>
    <path class="cls-3" d="M230.09,74.99l-.13,.62h.02c.17-.24,.39-.42,.65-.54,.26-.12,.53-.18,.82-.18,.39,0,.68,.09,.87,.26s.28,.44,.28,.81c0,.09-.01,.21-.03,.35s-.05,.3-.09,.45l-.5,2.35h-.68l.53-2.41s.01-.09,.02-.15,.02-.11,.03-.18c.01-.06,.02-.12,.03-.18s.01-.1,.01-.14c0-.2-.07-.34-.21-.43s-.31-.14-.51-.14c-.19,0-.37,.05-.55,.14s-.34,.2-.47,.34c-.12,.11-.22,.24-.29,.39-.07,.15-.12,.31-.17,.48l-.48,2.28h-.67l.86-4.12h.65Z"/>
    <path class="cls-3" d="M234.52,74.99l-.13,.62h.02c.17-.24,.39-.42,.65-.54,.26-.12,.53-.18,.82-.18,.39,0,.68,.09,.87,.26s.28,.44,.28,.81c0,.09-.01,.21-.03,.35s-.05,.3-.09,.45l-.5,2.35h-.68l.53-2.41s.01-.09,.02-.15,.02-.11,.03-.18c.01-.06,.02-.12,.03-.18s.01-.1,.01-.14c0-.2-.07-.34-.21-.43s-.31-.14-.51-.14c-.19,0-.37,.05-.55,.14s-.34,.2-.47,.34c-.12,.11-.22,.24-.29,.39-.07,.15-.12,.31-.17,.48l-.48,2.28h-.67l.86-4.12h.65Z"/>
    <path class="cls-3" d="M237.76,76.51c.1-.31,.26-.59,.45-.83,.2-.24,.44-.43,.73-.57,.28-.14,.61-.22,.97-.22,.56,0,.98,.14,1.28,.43,.29,.29,.44,.71,.44,1.27,0,.33-.05,.66-.15,.97-.1,.31-.25,.59-.45,.83s-.44,.43-.72,.58c-.28,.14-.6,.22-.96,.22-.27,0-.51-.04-.73-.13-.22-.09-.4-.2-.55-.36-.15-.15-.26-.33-.34-.54-.08-.21-.12-.44-.12-.69,0-.33,.05-.66,.16-.97Zm.81,1.79c.19,.21,.47,.31,.85,.31,.25,0,.47-.06,.66-.19s.35-.29,.48-.48c.13-.19,.23-.41,.3-.63s.1-.44,.1-.65c0-.16-.02-.31-.06-.45-.04-.14-.11-.27-.2-.37s-.2-.19-.34-.25c-.14-.06-.3-.09-.48-.09-.26,0-.49,.06-.69,.19-.2,.13-.36,.29-.49,.48-.13,.19-.23,.41-.3,.64-.07,.23-.1,.46-.1,.67,0,.34,.1,.61,.29,.82Z"/>
    <path class="cls-3" d="M242.97,79.11l-.59-4.12h.72l.35,3.43h.02l1.79-3.43h.73l-2.29,4.12h-.73Z"/>
    <path class="cls-3" d="M246.52,75.64c.11-.17,.24-.31,.4-.42s.34-.19,.54-.25,.41-.08,.63-.08c.2,0,.39,.02,.57,.05s.34,.09,.48,.17,.25,.19,.33,.32,.12,.31,.12,.51c0,.12-.01,.24-.04,.38-.03,.14-.06,.26-.08,.37l-.26,1.12c-.02,.08-.04,.18-.07,.29-.03,.11-.04,.21-.04,.3s.02,.16,.06,.2,.09,.06,.14,.06c.03,0,.07,0,.11-.02l.11-.04-.1,.5c-.05,.02-.12,.04-.2,.06-.08,.02-.15,.03-.21,.03-.19,0-.33-.05-.42-.15-.1-.1-.13-.24-.11-.42l-.02-.02c-.14,.19-.32,.34-.53,.44-.21,.1-.49,.15-.85,.15-.18,0-.34-.02-.49-.06-.15-.04-.28-.11-.39-.2s-.2-.21-.27-.36c-.07-.15-.1-.33-.1-.54,0-.3,.07-.54,.2-.71,.13-.17,.3-.3,.5-.39,.2-.09,.43-.15,.67-.18,.24-.03,.48-.06,.71-.08,.18-.02,.34-.03,.47-.05,.13-.02,.24-.05,.32-.09,.09-.04,.15-.1,.19-.18,.04-.08,.06-.19,.06-.33,0-.11-.03-.2-.08-.27-.05-.07-.12-.12-.2-.16-.08-.04-.17-.07-.27-.08-.1-.02-.19-.02-.28-.02-.13,0-.25,.01-.38,.04s-.24,.07-.34,.13c-.1,.06-.19,.14-.26,.23s-.11,.21-.14,.34h-.68c.03-.23,.1-.43,.21-.59Zm.19,2.83c.15,.1,.32,.14,.51,.14,.54,0,.92-.18,1.16-.54,.11-.15,.19-.32,.23-.5,.04-.18,.08-.37,.13-.56h-.02c-.1,.07-.22,.12-.36,.15-.15,.03-.3,.05-.47,.07-.16,.02-.33,.04-.5,.06s-.32,.06-.45,.12c-.13,.05-.24,.13-.33,.23-.08,.1-.13,.24-.14,.41,0,.19,.08,.33,.23,.43Z"/>
    <path class="cls-3" d="M253.11,75.7c-.15-.14-.37-.21-.64-.21s-.49,.06-.69,.18c-.2,.12-.37,.27-.5,.45-.14,.19-.24,.39-.31,.63-.07,.23-.1,.46-.1,.68,0,.16,.02,.31,.05,.45s.09,.27,.17,.37,.18,.19,.31,.26c.13,.06,.29,.1,.48,.1,.29,0,.54-.08,.75-.23,.21-.15,.36-.36,.45-.61h.68c-.12,.47-.35,.82-.67,1.07-.32,.24-.73,.37-1.21,.37-.56,0-.99-.15-1.27-.46s-.43-.74-.43-1.31c0-.33,.05-.65,.15-.95,.1-.3,.24-.57,.44-.81s.43-.43,.72-.57c.28-.14,.61-.21,.98-.21,.47,0,.84,.11,1.11,.34s.42,.58,.43,1.07h-.68c0-.26-.08-.45-.23-.59Z"/>
    <path class="cls-3" d="M255.8,74.99l-.86,4.12h-.67l.85-4.12h.68Zm-.53-.74l.18-.83h.69l-.18,.83h-.69Z"/>
    <path class="cls-3" d="M256.37,76.51c.1-.31,.26-.59,.45-.83,.2-.24,.44-.43,.73-.57,.28-.14,.61-.22,.97-.22,.56,0,.98,.14,1.28,.43,.29,.29,.44,.71,.44,1.27,0,.33-.05,.66-.15,.97-.1,.31-.25,.59-.45,.83s-.44,.43-.72,.58c-.28,.14-.6,.22-.96,.22-.27,0-.51-.04-.73-.13-.22-.09-.4-.2-.55-.36-.15-.15-.26-.33-.34-.54-.08-.21-.12-.44-.12-.69,0-.33,.05-.66,.16-.97Zm.81,1.79c.19,.21,.47,.31,.85,.31,.25,0,.47-.06,.66-.19s.35-.29,.48-.48c.13-.19,.23-.41,.3-.63s.1-.44,.1-.65c0-.16-.02-.31-.06-.45-.04-.14-.11-.27-.2-.37s-.2-.19-.34-.25c-.14-.06-.3-.09-.48-.09-.26,0-.49,.06-.69,.19-.2,.13-.36,.29-.49,.48-.13,.19-.23,.41-.3,.64-.07,.23-.1,.46-.1,.67,0,.34,.1,.61,.29,.82Zm2.84-5.02l-1.08,1.14h-.56l.74-1.14h.9Z"/>
    <path class="cls-3" d="M262.14,74.99l-.13,.62h.02c.17-.24,.39-.42,.65-.54,.26-.12,.53-.18,.82-.18,.39,0,.68,.09,.87,.26s.28,.44,.28,.81c0,.09-.01,.21-.03,.35s-.05,.3-.09,.45l-.5,2.35h-.68l.53-2.41s.01-.09,.02-.15,.02-.11,.03-.18c.01-.06,.02-.12,.03-.18s.01-.1,.01-.14c0-.2-.07-.34-.21-.43s-.31-.14-.51-.14c-.19,0-.37,.05-.55,.14s-.34,.2-.47,.34c-.12,.11-.22,.24-.29,.39-.07,.15-.12,.31-.17,.48l-.48,2.28h-.67l.86-4.12h.65Z"/>
    <path class="cls-3" d="M268.06,77.61c0,.16,.03,.3,.09,.43,.06,.12,.14,.23,.24,.31,.1,.08,.22,.15,.34,.19,.13,.05,.26,.07,.4,.07,.3,0,.55-.07,.75-.2,.2-.14,.34-.33,.44-.59h.68c-.05,.23-.14,.43-.25,.6-.12,.17-.26,.32-.42,.43-.17,.11-.35,.2-.55,.26s-.41,.09-.64,.09c-.34,0-.62-.05-.85-.16s-.41-.24-.54-.4c-.13-.16-.23-.34-.28-.53s-.08-.38-.08-.56c0-.39,.06-.75,.17-1.08,.11-.33,.27-.61,.46-.84,.19-.23,.42-.42,.68-.54,.26-.13,.53-.19,.81-.19,.61,0,1.05,.16,1.33,.48,.28,.32,.42,.77,.42,1.35,0,.11,0,.21-.02,.3-.02,.1-.03,.17-.04,.23h-3.1c-.02,.12-.02,.24-.02,.36Zm2.48-1.38c-.03-.14-.08-.27-.16-.37-.08-.11-.18-.2-.31-.26s-.28-.1-.47-.1c-.2,0-.37,.03-.53,.09-.16,.06-.29,.15-.41,.25-.12,.11-.22,.23-.3,.37-.08,.14-.14,.29-.19,.45h2.39c.01-.14,0-.29-.03-.43Z"/>
    <path class="cls-3" d="M273.07,74.99l-.13,.62h.02c.17-.24,.39-.42,.65-.54,.26-.12,.53-.18,.82-.18,.39,0,.68,.09,.87,.26s.28,.44,.28,.81c0,.09-.01,.21-.03,.35s-.05,.3-.09,.45l-.5,2.35h-.68l.53-2.41s.01-.09,.02-.15,.02-.11,.03-.18c.01-.06,.02-.12,.03-.18s.01-.1,.01-.14c0-.2-.07-.34-.21-.43s-.31-.14-.51-.14c-.19,0-.37,.05-.55,.14s-.34,.2-.47,.34c-.12,.11-.22,.24-.29,.39-.07,.15-.12,.31-.17,.48l-.48,2.28h-.67l.86-4.12h.65Z"/>
    <path class="cls-3" d="M281.32,75.7c-.15-.14-.37-.21-.64-.21s-.49,.06-.69,.18c-.2,.12-.37,.27-.5,.45-.14,.19-.24,.39-.31,.63-.07,.23-.1,.46-.1,.68,0,.16,.02,.31,.05,.45s.09,.27,.17,.37,.18,.19,.31,.26c.13,.06,.29,.1,.48,.1,.29,0,.54-.08,.75-.23,.21-.15,.36-.36,.45-.61h.68c-.12,.47-.35,.82-.67,1.07-.32,.24-.73,.37-1.21,.37-.56,0-.99-.15-1.27-.46s-.43-.74-.43-1.31c0-.33,.05-.65,.15-.95,.1-.3,.24-.57,.44-.81s.43-.43,.72-.57c.28-.14,.61-.21,.98-.21,.47,0,.84,.11,1.11,.34s.42,.58,.43,1.07h-.68c0-.26-.08-.45-.23-.59Z"/>
    <path class="cls-3" d="M282.81,76.51c.1-.31,.26-.59,.45-.83,.2-.24,.44-.43,.73-.57,.28-.14,.61-.22,.97-.22,.56,0,.98,.14,1.28,.43,.29,.29,.44,.71,.44,1.27,0,.33-.05,.66-.15,.97-.1,.31-.25,.59-.45,.83s-.44,.43-.72,.58c-.28,.14-.6,.22-.96,.22-.27,0-.51-.04-.73-.13-.22-.09-.4-.2-.55-.36-.15-.15-.26-.33-.34-.54-.08-.21-.12-.44-.12-.69,0-.33,.05-.66,.16-.97Zm.81,1.79c.19,.21,.47,.31,.85,.31,.25,0,.47-.06,.66-.19s.35-.29,.48-.48c.13-.19,.23-.41,.3-.63s.1-.44,.1-.65c0-.16-.02-.31-.06-.45-.04-.14-.11-.27-.2-.37s-.2-.19-.34-.25c-.14-.06-.3-.09-.48-.09-.26,0-.49,.06-.69,.19-.2,.13-.36,.29-.49,.48-.13,.19-.23,.41-.3,.64-.07,.23-.1,.46-.1,.67,0,.34,.1,.61,.29,.82Z"/>
    <path class="cls-3" d="M288.58,74.99l-.13,.62h.02c.17-.24,.39-.42,.65-.54,.26-.12,.53-.18,.82-.18,.39,0,.68,.09,.87,.26s.28,.44,.28,.81c0,.09-.01,.21-.03,.35s-.05,.3-.09,.45l-.5,2.35h-.68l.53-2.41s.01-.09,.02-.15,.02-.11,.03-.18c.01-.06,.02-.12,.03-.18s.01-.1,.01-.14c0-.2-.07-.34-.21-.43s-.31-.14-.51-.14c-.19,0-.37,.05-.55,.14s-.34,.2-.47,.34c-.12,.11-.22,.24-.29,.39-.07,.15-.12,.31-.17,.48l-.48,2.28h-.67l.86-4.12h.65Z"/>
    <path class="cls-3" d="M294.12,75.67c-.17-.12-.37-.18-.61-.18-.1,0-.2,0-.31,.02-.11,.02-.2,.04-.28,.08-.08,.04-.15,.09-.2,.16s-.08,.15-.08,.26c0,.1,.03,.18,.09,.25,.06,.07,.14,.13,.25,.19,.1,.06,.22,.11,.35,.16,.13,.05,.26,.1,.39,.16,.14,.06,.27,.12,.4,.19,.13,.07,.25,.15,.35,.24s.18,.19,.25,.31c.06,.12,.1,.26,.1,.42,0,.23-.05,.42-.15,.59-.1,.16-.23,.29-.39,.4s-.34,.17-.54,.22c-.2,.05-.4,.07-.6,.07-.24,0-.46-.02-.66-.07s-.38-.12-.52-.23c-.15-.11-.26-.25-.35-.43-.08-.18-.13-.4-.13-.67h.67c-.01,.15,.01,.28,.07,.38s.13,.19,.23,.25c.1,.06,.21,.11,.34,.13,.13,.03,.27,.04,.41,.04,.11,0,.22-.01,.34-.03,.11-.02,.21-.06,.3-.11,.09-.05,.16-.12,.22-.19s.08-.18,.08-.3c0-.1-.03-.19-.1-.26-.06-.07-.15-.14-.25-.19s-.22-.11-.35-.16c-.13-.05-.26-.11-.39-.16-.14-.05-.27-.11-.4-.18-.13-.06-.25-.14-.35-.23-.1-.09-.19-.19-.25-.31-.06-.12-.09-.25-.09-.41,0-.19,.04-.36,.13-.51,.09-.15,.2-.27,.35-.37,.14-.1,.31-.17,.49-.23,.18-.05,.37-.08,.56-.08s.38,.02,.57,.07c.19,.05,.35,.12,.5,.22,.15,.1,.26,.24,.35,.41,.09,.17,.14,.37,.14,.61h-.68c.01-.23-.07-.41-.24-.53Z"/>
    <path class="cls-3" d="M297.95,74.99l-.13,.6h-.82l-.51,2.42s-.01,.09-.02,.14c0,.04,0,.09,0,.14,0,.11,.04,.18,.12,.22,.08,.04,.18,.06,.28,.06,.07,0,.14,0,.2-.02s.13-.03,.19-.05l-.12,.62c-.08,.01-.16,.02-.24,.03-.08,0-.16,.01-.24,.01-.13,0-.25,0-.36-.03s-.21-.05-.29-.1c-.08-.05-.15-.12-.2-.2-.05-.08-.08-.19-.08-.33,0-.06,0-.11,.01-.17,0-.05,.02-.11,.03-.18l.54-2.56h-.69l.13-.6h.69l.25-1.22h.68l-.26,1.22h.82Z"/>
    <path class="cls-3" d="M299.34,74.99l-.2,.89h.02c.16-.28,.36-.52,.61-.7,.25-.19,.54-.28,.89-.28,.04,0,.08,0,.12,0,.04,0,.08,0,.12,0l-.16,.73s-.06,0-.1,0h-.1c-.08,0-.15,0-.21,0-.05,0-.12,.01-.2,.04-.19,.05-.35,.13-.5,.25-.15,.12-.27,.26-.38,.42-.09,.13-.16,.29-.22,.47-.05,.18-.1,.34-.13,.5l-.39,1.83h-.67l.85-4.12h.64Z"/>
    <path class="cls-3" d="M303.16,79.11l.13-.62h-.02c-.17,.24-.39,.42-.65,.53-.26,.12-.53,.18-.82,.18-.39,0-.68-.08-.86-.25-.19-.17-.28-.43-.28-.8,0-.09,.01-.21,.03-.35,.02-.14,.05-.3,.09-.45l.5-2.35h.68l-.53,2.41s-.02,.08-.03,.14-.02,.12-.03,.18c-.01,.06-.02,.12-.02,.18,0,.06,0,.1,0,.14,0,.2,.07,.34,.21,.43,.14,.09,.31,.14,.51,.14,.19,0,.37-.04,.53-.11,.16-.07,.31-.17,.43-.3s.24-.27,.32-.43c.09-.16,.15-.33,.19-.5l.48-2.28h.68l-.87,4.12h-.65Z"/>
    <path class="cls-3" d="M308.05,75.7c-.15-.14-.37-.21-.64-.21s-.49,.06-.69,.18c-.2,.12-.37,.27-.5,.45-.14,.19-.24,.39-.31,.63-.07,.23-.1,.46-.1,.68,0,.16,.02,.31,.05,.45s.09,.27,.17,.37,.18,.19,.31,.26c.13,.06,.29,.1,.48,.1,.29,0,.54-.08,.75-.23,.21-.15,.36-.36,.45-.61h.68c-.12,.47-.35,.82-.67,1.07-.32,.24-.73,.37-1.21,.37-.56,0-.99-.15-1.27-.46s-.43-.74-.43-1.31c0-.33,.05-.65,.15-.95,.1-.3,.24-.57,.44-.81s.43-.43,.72-.57c.28-.14,.61-.21,.98-.21,.47,0,.84,.11,1.11,.34s.42,.58,.43,1.07h-.68c0-.26-.08-.45-.23-.59Z"/>
    <path class="cls-3" d="M312.33,75.7c-.15-.14-.37-.21-.64-.21s-.49,.06-.69,.18c-.2,.12-.37,.27-.5,.45-.14,.19-.24,.39-.31,.63-.07,.23-.1,.46-.1,.68,0,.16,.02,.31,.05,.45s.09,.27,.17,.37,.18,.19,.31,.26c.13,.06,.29,.1,.48,.1,.29,0,.54-.08,.75-.23,.21-.15,.36-.36,.45-.61h.68c-.12,.47-.35,.82-.67,1.07-.32,.24-.73,.37-1.21,.37-.56,0-.99-.15-1.27-.46s-.43-.74-.43-1.31c0-.33,.05-.65,.15-.95,.1-.3,.24-.57,.44-.81s.43-.43,.72-.57c.28-.14,.61-.21,.98-.21,.47,0,.84,.11,1.11,.34s.42,.58,.43,1.07h-.68c0-.26-.08-.45-.23-.59Z"/>
    <path class="cls-3" d="M315.03,74.99l-.86,4.12h-.67l.85-4.12h.68Zm-.53-.74l.18-.83h.69l-.18,.83h-.69Z"/>
    <path class="cls-3" d="M315.59,76.51c.1-.31,.26-.59,.45-.83,.2-.24,.44-.43,.73-.57,.28-.14,.61-.22,.97-.22,.56,0,.98,.14,1.28,.43,.29,.29,.44,.71,.44,1.27,0,.33-.05,.66-.15,.97-.1,.31-.25,.59-.45,.83s-.44,.43-.72,.58c-.28,.14-.6,.22-.96,.22-.27,0-.51-.04-.73-.13-.22-.09-.4-.2-.55-.36-.15-.15-.26-.33-.34-.54-.08-.21-.12-.44-.12-.69,0-.33,.05-.66,.16-.97Zm.81,1.79c.19,.21,.47,.31,.85,.31,.25,0,.47-.06,.66-.19s.35-.29,.48-.48c.13-.19,.23-.41,.3-.63s.1-.44,.1-.65c0-.16-.02-.31-.06-.45-.04-.14-.11-.27-.2-.37s-.2-.19-.34-.25c-.14-.06-.3-.09-.48-.09-.26,0-.49,.06-.69,.19-.2,.13-.36,.29-.49,.48-.13,.19-.23,.41-.3,.64-.07,.23-.1,.46-.1,.67,0,.34,.1,.61,.29,.82Zm2.84-5.02l-1.08,1.14h-.56l.74-1.14h.9Z"/>
    <path class="cls-3" d="M321.36,74.99l-.13,.62h.02c.17-.24,.39-.42,.65-.54,.26-.12,.53-.18,.82-.18,.39,0,.68,.09,.87,.26s.28,.44,.28,.81c0,.09-.01,.21-.03,.35s-.05,.3-.09,.45l-.5,2.35h-.68l.53-2.41s.01-.09,.02-.15,.02-.11,.03-.18c.01-.06,.02-.12,.03-.18s.01-.1,.01-.14c0-.2-.07-.34-.21-.43s-.31-.14-.51-.14c-.19,0-.37,.05-.55,.14s-.34,.2-.47,.34c-.12,.11-.22,.24-.29,.39-.07,.15-.12,.31-.17,.48l-.48,2.28h-.67l.86-4.12h.65Z"/>
    <polyline class="cls-3" points="124.26 39.94 138.76 39.94 147.23 48.45 166.99 28.57 178.53 16.96 193.18 16.96 166.99 43.15 147.23 62.91 124.26 39.94"/>
    <rect class="cls-3" x="170.2" y="45.68" width="5.04" height="5.04"/>
    <rect class="cls-3" x="176.65" y="45.68" width="5.04" height="5.04"/>
    <rect class="cls-3" x="170.2" y="52.13" width="5.04" height="5.04"/>
    <rect class="cls-3" x="176.65" y="52.13" width="5.04" height="5.04"/>
  </g>
</svg>